<svg xmlns="http://www.w3.org/2000/svg" viewBox="0 0 32 32">
    <path fill="#00B4AB" d="M17.84 3.73L9.66 3.73L4.25 10.37L15.13 22.48L24.93 11.62L17.84 3.73Z"/>
    <path fill="#027DFD" d="M17.84 3.73L24.93 11.62L17.84 19.49L27.05 10.37L21.64 3.73L17.84 3.73Z"/>
    <path fill="#02589B" d="M9.66 3.73L4.25 10.37L9.66 17.02L15.13 22.48L24.93 11.62L17.84 3.73L9.66 3.73Z"/>
    <polygon points="4.25,10.37 9.66,3.73 17.84,3.73 24.93,11.62 15.13,22.48" fill="#0175C2"/>
    <path d="M4.25 10.37L15.13 22.48L28.1 8.09L21.6 3.73H9.6L4.25 10.37Z" fill="#2CB7F6"/>
    <g transform="scale(0.8) translate(6,6)">
        <path d="M4.12,10.63l5.5,5.5a1.47,1.47,0,0,0,2.1,0L27.88,0H11.23L4.12,10.63z" fill="#00D2B8"/>
        <path d="M4.12,10.63l5.5,5.5a1.47,1.47,0,0,0,2.1,0L27.88,0H11.23L4.12,10.63z" fill="#00D2B8"/>
        <path d="M11.72,16.13a1.47,1.47,0,0,1-2.1,0L4.12,10.63l9.53-6.93L27.88,0,11.72,16.13z" fill="#0081CB"/>
    </g>
</svg>